<?xml version="1.0" encoding="UTF-8"?>
<svg width="474px" height="59px" viewBox="0 0 474 59" version="1.1" xmlns="http://www.w3.org/2000/svg" xmlns:xlink="http://www.w3.org/1999/xlink">
    <!-- Generator: Sketch 52.6 (67491) - http://www.bohemiancoding.com/sketch -->
    <title>taco_logo</title>
    <desc>Created with Sketch.</desc>
    <g id="Page-1" stroke="none" stroke-width="1" fill="none" fill-rule="evenodd">
        <g id="Artboard" transform="translate(-1527.000000, -707.000000)">
            <g id="taco_logo" transform="translate(1523.000000, 695.000000)">
                <g id="taco" transform="translate(40.033345, 37.489180) rotate(36.000000) translate(-40.033345, -37.489180) translate(6.533345, 15.489180)">
                    <path d="M41.4070503,9.59071023 C28.111315,9.86186547 17.5462199,21.0836169 17.5462199,34.620585 L54.0872865,43.1352201 L57.669832,43.1352201 C62.4183575,43.1352201 66.267778,39.2167773 66.267778,34.3831162 C66.267778,20.5185715 55.0897681,9.31151459 41.4070503,9.59071023 Z" id="Path" fill="#BB9430"></path>
                    <path d="M55.1460563,13.8390292 C55.0762185,13.5675369 54.9791835,13.3002066 54.8564548,13.0417548 C54.7281226,12.7871875 54.57109,12.5439959 54.3916437,12.3130125 C54.3018521,12.1977289 54.2072772,12.0874395 54.1087389,11.982838 C54.0076039,11.8800399 53.9004554,11.7844558 53.7909836,11.6938659 C53.5713566,11.5129636 53.3373793,11.3556451 53.0931519,11.2245464 C52.5936268,10.9716438 52.0539211,10.8234815 51.4993185,10.8011461 C50.3969466,10.7618859 49.543039,9.89732806 49.4599443,8.79457291 C49.4413573,8.5130922 49.3932498,8.23466352 49.3172619,7.96275509 C49.2378572,7.69500852 49.1270187,7.4380828 48.9923998,7.189897 C48.728082,6.68769878 48.3350221,6.25930428 47.8715776,5.89805451 C46.9225484,5.20052615 45.7568988,4.93624781 44.6673739,5.2132892 C43.604636,5.45772933 42.5353381,4.903924 42.151435,3.85138867 C41.955315,3.32366435 41.6422065,2.84837952 41.239033,2.4488406 C40.8292995,2.0652555 40.3371546,1.73868792 39.7750351,1.55376245 C39.2198858,1.34983113 38.633166,1.29628181 38.0761033,1.34539181 C37.5157606,1.40449027 36.9774215,1.59135795 36.5038636,1.88130112 C35.5618045,2.47492161 34.3860414,2.25170699 33.683563,1.40490646 C33.5067133,1.18626988 33.3067666,0.984419494 33.0867296,0.809621218 C32.8662826,0.641898111 32.6258819,0.496232882 32.3704476,0.374567733 C32.2427988,0.313804523 32.1111866,0.259006651 31.9767043,0.210451574 C31.8419487,0.164393616 31.7039131,0.130405063 31.5632807,0.099746 C31.2822894,0.0398151627 30.9910478,0.00610406676 30.6955695,0 C30.4000912,0.00624279555 30.1088497,0.0399538915 29.8278583,0.099746 C29.6873626,0.130266334 29.5491903,0.164532345 29.4144347,0.210451574 C29.2798158,0.259006651 29.1483402,0.313804523 29.0206914,0.374567733 C28.7652571,0.496232882 28.5249931,0.641620654 28.3042727,0.809621218 C28.0842357,0.984419494 27.884289,1.18626988 27.7074394,1.40490646 C27.0050976,2.25156826 25.8293345,2.47478288 24.8870021,1.88116239 C24.4133075,1.59121922 23.8752418,1.40435154 23.314899,1.34525308 C22.7578364,1.29614308 22.1711165,1.3496924 21.6159672,1.55362372 C21.0539844,1.7385492 20.5617029,2.0652555 20.1519693,2.4488406 C19.7489326,2.84837952 19.4356873,3.32380308 19.2395673,3.8515274 C18.8558009,4.90378527 17.7866396,5.4575906 16.7234918,5.21342793 C15.6343769,4.93624781 14.4687273,5.20052615 13.5195614,5.89819323 C13.056117,6.259443 12.6629204,6.68797624 12.3986026,7.19003573 C12.2639837,7.43822153 12.1531451,7.69542471 12.0736038,7.96303254 C11.9977525,8.23480224 11.9495084,8.51323093 11.9309214,8.79485037 C11.8481,9.89746679 10.9941924,10.7618859 9.89154721,10.8014236 C9.33694457,10.8238977 8.79737552,10.9719213 8.29785048,11.2248239 C8.05375972,11.3560613 7.81991913,11.5133797 7.60001877,11.6941434 C7.49054694,11.7847333 7.3832618,11.8803174 7.28226344,11.9831154 C7.18372512,12.0877169 7.08928687,12.1978676 6.9993587,12.3132899 C6.82004902,12.5442734 6.66287972,12.7874649 6.53468424,13.0420323 C6.41195551,13.3006227 6.31478388,13.5678144 6.24508271,13.8393066 C6.0993936,14.3785454 6.09283349,14.9548248 6.18932178,15.5054394 C6.21378552,15.6416711 6.22458237,15.7767929 6.222259,15.9095564 C6.22294234,16.0441233 6.21105214,16.1764706 6.18713507,16.3050721 C6.13943761,16.5619979 6.04417934,16.8038021 5.90805706,17.0198029 C5.64168926,17.4549951 5.22553228,17.7973777 4.68992663,17.9434592 C4.16074442,18.0988354 3.66613945,18.3654721 3.24164567,18.7272768 C3.03431885,18.9105375 2.84270897,19.1165498 2.67050609,19.3421228 C2.58440464,19.4549093 2.50294994,19.5725513 2.426962,19.6943552 C2.35384411,19.8178238 2.28742299,19.9462867 2.22592196,20.0783565 C2.10319324,20.3427736 2.00656828,20.6148207 1.93714045,20.8900587 C1.87153935,21.1668226 1.83928548,21.4495519 1.830812,21.7288129 C1.82493524,22.0091838 1.83928548,22.2849766 1.89436307,22.5603533 C1.94848397,22.835175 2.02980201,23.1038927 2.13872717,23.3627606 C2.24806233,23.6198251 2.2939831,23.8773057 2.30532663,24.1446361 L30.5099731,33.5496157 L49.7075884,19.9571075 C54.6030705,18.9245492 55.2014072,15.5054394 55.2014072,15.5054394 C55.2981689,14.9544086 55.2917454,14.3781293 55.1460563,13.8390292 Z" id="Path" fill="#C4C65A"></path>
                    <path d="M49.9344308,19.9529845 C47.916483,21.6634725 38.6299405,27.3220992 30.9053568,33.7966905 L51.1671997,40.738819 C51.4701086,40.2503705 51.8919594,39.9123987 52.3650175,39.7249034 C52.6035786,39.6354652 52.849455,39.566797 53.1121296,39.561004 C53.3714174,39.5471574 53.6358531,39.5672209 53.9070623,39.6494532 C54.449887,39.8033208 55.0414806,39.8061467 55.6177661,39.6484641 C55.9095666,39.5756985 56.184027,39.4450028 56.4607904,39.2984824 C56.7284773,39.1405173 56.9865459,38.9493484 57.223075,38.7272365 C57.6882759,38.2731221 58.0464562,37.7291457 58.2407189,37.1419337 C58.2904361,36.9961198 58.3324315,36.8494581 58.3662988,36.7032203 C58.396102,36.5535914 58.4160159,36.4028322 58.4288855,36.2539098 C58.4414841,36.1048462 58.4458191,35.9569128 58.4418905,35.8109576 C58.4345752,35.6626004 58.4164223,35.5142432 58.3916315,35.3698421 C58.3419143,35.0842898 58.3469267,34.8087693 58.3788974,34.5380527 C58.3971857,34.403966 58.4268535,34.2741182 58.4676297,34.1489329 C58.5070512,34.0230412 58.5489111,33.8972908 58.6060791,33.7795941 C58.6614859,33.6609084 58.7305752,33.5492872 58.8046768,33.4411984 C58.8752562,33.331414 58.9564022,33.2279879 59.0474374,33.1316263 C59.2342493,32.9407401 59.4435491,32.7701999 59.6903738,32.6375262 C59.8159536,32.5704122 59.9388241,32.4948207 60.0580369,32.4113167 C60.1723729,32.325976 60.2815609,32.232299 60.3876333,32.1311336 C60.4934346,32.0299681 60.5953074,31.9214554 60.6925742,31.8060193 C60.7850996,31.6893116 60.8694969,31.5646916 60.9507783,31.4345611 C61.0304342,31.3041481 61.1091417,31.1686485 61.1745733,31.0262256 C61.2370245,30.8832375 61.2937861,30.7351628 61.3443161,30.5828494 C61.4525559,30.279353 61.5029504,29.95438 61.5377659,29.6234728 C61.5700076,29.292283 61.5456232,28.9612345 61.509182,28.6434674 C61.4544524,28.3252765 61.3735774,28.0186716 61.2607316,27.7331193 C61.1366419,27.4481322 60.9935866,27.1827847 60.8197797,26.9456958 C60.6377092,26.7095959 60.4351829,26.5002002 60.2149102,26.3224542 C59.9912507,26.148523 59.8007811,25.9459094 59.6598932,25.7219607 C59.5173797,25.4984358 59.3946447,25.2604991 59.3307033,25.0051834 C59.2620205,24.7512807 59.2160964,24.4904545 59.2303207,24.2179011 C59.2414292,23.9456303 59.2869468,23.68325 59.3954575,23.4214349 C59.5032909,23.1577829 59.584166,22.8842405 59.6376763,22.6043399 C59.6922703,22.3241567 59.7064946,22.0431257 59.7006694,21.7574321 C59.6922703,21.4728688 59.6602996,21.1850559 59.5952745,20.9031772 C59.5263207,20.622994 59.4306795,20.3456366 59.3090283,20.0764742 C59.2480672,19.9419637 59.1822292,19.8111268 59.1097532,19.6853764 C59.0342969,19.5610389 58.9536928,19.4413641 58.8683473,19.3266345 C58.6975207,19.0968928 58.5077285,18.8870733 58.3022219,18.7004258 C58.255485,18.6595922 58.2079354,18.6197477 58.1594374,18.5811748 C57.541021,18.0891941 56.7779235,17.7349736 56.0058851,17.6346558 C54.0280362,17.3776446 52.3665076,17.891667 49.9344308,19.9529845 Z" id="Path" fill="#915729"></path>
                    <g id="Group" transform="translate(1.043757, 5.591603)">
                        <path d="M43.7330449,6.84815525 C45.2684738,6.41972065 46.673595,7.88263006 46.2621544,9.48122223 L45.4600627,12.59796 L44.6579709,15.7146978 C44.2465304,17.3132899 42.3271084,17.8486561 41.2031201,16.6783569 L39.0116691,14.3968188 L36.8200822,12.1152806 C35.6960939,10.945123 36.2103947,8.94684744 37.7458235,8.51855447 L40.7393663,7.68335486 L43.7330449,6.84815525 Z" id="Path" fill="#A7A951"></path>
                        <path d="M42.5072835,12.2792896 L43.3093752,9.16255186 C43.5121062,8.37494036 43.272688,7.621462 42.7950745,7.10974821 L40.7393663,7.68321323 L37.7458235,8.51827121 C36.2103947,8.94670581 35.6960939,10.9448398 36.8200822,12.1149974 L39.0116691,14.3965355 L41.0287878,16.4965024 C41.3425316,16.2278279 41.5865697,15.8561874 41.7051918,15.3956025 L42.5072835,12.2792896 Z" id="Path" fill="#D1D274"></path>
                        <path d="M20.84048,0.83194209 C21.6352343,-0.247996357 23.6224597,-0.247996357 24.417214,0.83194209 L25.9667742,2.93771584 L27.5163345,5.04348959 C28.3110888,6.12342803 27.317544,7.47359895 25.7278996,7.47359895 L22.6287791,7.47359895 L19.5295227,7.47359895 C17.9398783,7.47359895 16.9463335,6.12356967 17.7410878,5.04348959 L19.290648,2.93771584 L20.84048,0.83194209 Z" id="Path" fill="#A7A951"></path>
                        <path d="M23.6625439,4.4058656 L22.1129837,2.30009185 C21.7215173,1.76798317 21.0403576,1.49930864 20.3551215,1.49151892 L19.2910557,2.93743258 L17.7414954,5.04320632 C16.9467412,6.12314477 17.9402859,7.47331569 19.5299304,7.47331569 L22.6291867,7.47331569 L25.4818233,7.47331569 C25.5210922,7.15606164 25.4413315,6.82251999 25.2123759,6.51149772 L23.6625439,4.4058656 Z" id="Path" fill="#D1D274"></path>
                        <path d="M0.129084727,14.2333763 C-0.0423941419,12.8846217 1.3625912,11.4217123 2.65819422,11.6003093 L5.18417851,11.948439 L7.7101628,12.2965686 C9.00576582,12.4751657 9.22018234,14.161286 8.09605819,15.3314435 L5.90447129,17.6129817 L3.71288438,19.8945198 C2.58889611,21.064819 0.969222481,20.8416082 0.797743612,19.4927119 L0.46334623,16.8630441 L0.129084727,14.2333763 Z" id="Path" fill="#A7A951"></path>
                        <path d="M4.55207098,14.6830556 L2.0260867,14.3349259 C1.38772875,14.2469729 0.723689742,14.5582784 0.233983052,15.0572454 L0.463753866,16.8630441 L0.798151248,19.4927119 C0.969630117,20.8414665 2.58916786,21.0646774 3.71329202,19.8945198 L5.90487892,17.6129817 L7.92199763,15.5130148 C7.73448508,15.2597781 7.45144983,15.082739 7.07819115,15.0311852 L4.55207098,14.6830556 Z" id="Path" fill="#D1D274"></path>
                    </g>
                    <path d="M0.257925038,34.6204803 C0.257925038,21.0837048 10.8316721,9.86199804 24.1379881,9.59070525 C37.8318707,9.31164936 49.0187543,20.518523 49.0187543,34.3831511 C49.0187543,39.2166543 52.8712776,43.1352201 57.6236306,43.1352201 L8.62960792,43.1352201 C4.00603543,43.1350815 0.257925038,39.3228425 0.257925038,34.6204803 Z" id="Path" fill="#EBD37A"></path>
                    <path d="M49.0913723,35.1472164 L0.257925038,35.1472164 C0.721197816,39.6401027 4.27150238,43.1352201 8.58443568,43.1352201 L57.6236306,43.1352201 C53.2620536,43.1350738 49.6601078,39.6575125 49.0913723,35.1472164 Z" id="Path" fill="#E2C35A"></path>
                    <g id="Group" transform="translate(8.902072, 15.177207)" fill="#D9B43A">
                        <ellipse id="Oval" cx="6.16299369" cy="6.26150298" rx="1.04506583" ry="1.07577158"></ellipse>
                        <ellipse id="Oval" cx="1.14638013" cy="10.5647285" rx="1.04506583" ry="1.07577158"></ellipse>
                        <ellipse id="Oval" cx="9.50731255" cy="14.0074482" rx="1.04506583" ry="1.07577158"></ellipse>
                        <ellipse id="Oval" cx="1.28570421" cy="5.40085787" rx="1.04506583" ry="1.07577158"></ellipse>
                        <ellipse id="Oval" cx="13.8270352" cy="1.09749308" rx="1.04506583" ry="1.07577158"></ellipse>
                        <ellipse id="Oval" cx="18.007569" cy="11.1385384" rx="1.04506583" ry="1.07577158"></ellipse>
                        <ellipse id="Oval" cx="22.1879676" cy="3.96640294" rx="1.04506583" ry="1.07577158"></ellipse>
                        <ellipse id="Oval" cx="31.9424113" cy="12.5729933" rx="1.04506583" ry="1.07577158"></ellipse>
                    </g>
                </g>
                <g id="Group-2" transform="translate(292.547794, 23.943396)" fill="#FFFFFF">
                    <path d="M37.1435283,4.98087207 C39.1364657,4.98087207 40.4226684,5.50167563 41.002175,6.54329837 L41.0869804,7.25941042 C41.0869804,9.32818891 36.9951597,10.8254991 28.8113954,11.751386 L25.3343731,11.6428842 L24.4227148,11.751386 C23.9562826,15.064325 23.72307,18.0661789 23.72307,20.7570376 L24.5075202,36.7719071 L24.5075202,41.5242871 C24.5075202,42.5514429 24.2743076,43.159047 23.8078754,43.3471178 C22.2389673,43.9402641 20.9103623,44.2368328 19.8220205,44.2368328 C18.5075299,40.1716107 17.8502945,34.9852753 17.8502945,28.6776709 C17.6806828,26.3050858 17.5958782,24.0482704 17.5958782,21.907157 L17.765489,12.7279025 C16.9598335,12.3662279 15.7443012,12.1853933 14.1188558,12.1853933 L5.48990402,12.4457977 L3.9634064,12.4457977 C1.47576821,12.4457977 0.231967775,12.0479617 0.231967775,11.2522776 L0.231967775,10.7097685 C0.231967775,9.56687687 0.966940761,8.50356961 2.43690878,7.5198148 C6.73373838,6.75306473 12.0481584,6.36969544 18.3803284,6.36969544 C22.7760981,6.36969544 27.9421101,5.93569248 33.8785195,5.06767353 L37.1435283,4.98087207 Z" id="Path"></path>
                    <path d="M56.4791648,2.13812422 C57.9208642,2.13812422 59.673492,3.1941981 61.737101,5.30637755 L61.737101,6.13099143 C61.737101,9.96474179 63.0091696,15.6429472 65.553345,23.1657781 L66.4650033,23.2525796 L69.8572203,23.0789767 C70.9314277,23.0789767 71.4685233,23.4044789 71.4685233,24.0554931 C71.6946722,24.113361 71.807745,24.1856949 71.807745,24.2724968 C71.807745,25.7770629 70.8819617,26.7680364 69.0303674,27.2454468 L67.2494535,27.7011545 C69.6522859,33.9798249 71.8218696,38.2330539 73.7582697,40.4609692 C75.2423721,41.8787335 75.9844121,43.2386095 75.9844121,44.5406379 C75.9844121,45.24952 75.6310597,45.7703236 74.9243443,46.1030642 C74.9243443,46.276668 74.5073885,46.4358024 73.6734643,46.5804722 L73.1434304,46.5804722 C71.3201047,46.5804722 69.0657164,43.4556509 66.3801979,37.2059144 C64.9102299,34.5729236 63.4897533,31.5349029 62.1187254,28.091761 L59.5109586,27.9181581 C51.8784324,28.3955685 48.0622265,29.1189068 48.0622265,30.0881946 C47.624063,30.5366711 46.5498717,32.6560523 44.8396204,36.4464017 C43.7936816,38.0233028 42.6346858,38.8117415 41.3625981,38.8117415 L40.8537655,38.8117415 C39.638215,38.8117415 38.9244432,38.4862393 38.7124286,37.835225 L38.5428177,36.4464017 C38.5428177,35.8243214 38.8042985,34.4355119 39.3272679,32.2799315 C39.3272679,32.0339928 37.9067913,31.6578569 35.0657954,31.1515125 C34.2318712,30.746437 33.8149154,30.2907339 33.8149154,29.7843895 C34.1965417,28.9597715 34.9951181,28.2653668 36.2106686,27.7011545 L42.1894509,25.8783238 C42.6276145,25.7625879 43.3131181,24.9162822 44.2459825,23.3393811 C47.3979331,18.2470032 49.6947237,13.9937742 51.1364231,10.5795663 C51.8007356,8.98819823 52.5286415,6.93391753 53.3201627,4.41666257 C54.0127438,2.89762941 54.9809294,2.13812422 56.2247485,2.13812422 L56.4791648,2.13812422 Z M56.6487756,14.6809353 C54.4014207,18.25428 52.7265303,21.2923008 51.6240543,23.7950887 L51.6240543,23.8818902 L51.7088597,23.8818902 C52.5427839,23.8818902 54.7971722,23.4334205 58.4720922,22.5364675 L59.7017708,22.4496661 C58.6841007,18.5435808 57.8855243,16.1710313 57.3060176,15.3319463 L56.6487756,14.6809353 Z" id="Combined-Shape"></path>
                    <path d="M99.2847022,2.13812422 C101.913683,2.34066198 103.228154,3.24483482 103.228154,4.85066988 L103.228154,5.0242728 C103.228154,6.89051354 100.521475,8.44569083 95.1080351,9.68985133 C92.3659793,10.8761439 89.1151373,13.2052931 85.3554114,16.6773689 C82.4861469,19.903506 81.0515361,23.0283274 81.0515361,26.0519267 L81.0515361,26.8114395 C81.0515361,31.0502654 83.9560928,33.8640513 89.7652934,35.2528816 C91.3059329,35.5711552 92.9172199,35.7302896 94.5992025,35.7302896 C100.733492,35.7302896 105.941906,33.6904757 110.224602,29.6107866 C111.086795,29.0176403 113.058501,27.1369608 116.13978,23.9686917 C118.966642,21.4225027 121.397706,20.1494274 123.433046,20.1494274 L123.602657,20.4098318 L123.602657,20.5400339 C123.602657,22.7968832 122.387125,25.1260325 119.956024,27.5275516 C119.956024,27.8458252 118.493145,29.5456701 115.567343,32.6271374 C109.192771,38.761138 101.899577,41.8280922 93.6875442,41.8280922 C85.5179143,41.8280922 79.9985498,39.0721734 77.1292853,33.5602531 C75.6593173,31.158734 74.9243443,28.62705 74.9243443,25.9651253 L74.9243443,25.3358147 C74.9243443,19.1439462 79.3695175,12.8364364 88.2599971,6.41309617 C92.8253786,3.56310062 96.2952991,2.13812422 98.6698628,2.13812422 L99.2847022,2.13812422 Z" id="Path"></path>
                    <path d="M133.524892,1.07480633 C138.910063,1.07480633 143.065487,7.41848299 145.991289,20.1060266 C146.401184,22.4352108 146.606128,24.6269258 146.606128,26.6812373 L146.606128,27.0284432 C146.606128,31.9472172 145.546071,36.0196117 143.425925,39.2457488 C140.88175,42.2693481 138.061997,43.7811251 134.966584,43.7811251 L134.054926,43.7811251 C130.436543,43.7811251 127.206902,41.6038769 124.365906,37.2493152 C121.878268,32.8658195 120.634467,27.9037189 120.634467,22.3628646 L120.634467,21.0391423 C120.634467,14.1239247 121.906536,8.47465279 124.450712,4.09115709 C125.751068,2.73126074 127.08674,1.93558864 128.457768,1.70411692 C130.478974,1.28457442 132.054925,1.07480633 133.18567,1.07480633 L133.524892,1.07480633 Z M129.093808,9.25584402 L128.796989,9.25584402 C128.415363,9.34264592 128.012541,10.5867877 127.588512,12.9883068 C126.853528,15.6502316 126.486042,18.3338166 126.486042,21.0391423 L126.486042,21.2127453 C126.486042,29.4155243 128.514284,34.6886604 132.570831,37.0323115 C133.503695,37.4084531 134.302272,37.596521 134.966584,37.596521 L135.305806,37.596521 C137.482489,37.596521 139.291653,35.9256096 140.733353,32.5837367 C141.030173,31.3974441 141.178581,29.7843997 141.178581,27.7445552 L141.178581,26.6812373 C141.178581,21.5165246 140.047854,16.3880562 137.786364,11.2956784 C135.849964,8.24314505 134.259878,6.71690129 133.016059,6.71690129 L132.740442,6.71690129 C131.878249,6.71690129 131.15741,7.6355409 130.577903,9.47284767 L129.093808,9.25584402 Z" id="Combined-Shape"></path>
                    <path d="M165.878161,3.07123993 C170.387005,3.07123993 173.383433,4.07668013 174.867536,6.0875907 C175.008879,6.44926526 175.079549,6.74583395 175.079549,6.97730567 C175.079549,7.62831988 174.302174,8.09125638 172.7474,8.36612905 C172.478848,8.48186491 171.885216,8.53973197 170.966486,8.53973197 L164.097247,8.36612905 C162.019504,8.36612905 159.687378,9.52347028 157.100799,11.8381875 C156.521293,12.4892017 155.899393,13.3572076 155.23508,14.4422313 C156.139676,15.7876607 157.475348,16.7424672 159.242136,17.3066795 C162.153804,18.3049013 166.839257,19.8094449 173.298635,21.8203555 C181.284519,24.3376104 185.277401,27.3177641 185.277401,30.760906 L185.277401,31.3902166 C185.277401,35.8315802 179.708568,39.4772051 168.570733,42.3272006 C165.47532,43.0071488 162.740372,43.3471178 160.365808,43.3471178 C154.980637,43.3471178 151.609655,42.160843 150.252762,39.7882579 C149.899404,39.0215078 149.722728,38.2620027 149.722728,37.5097196 C149.722728,35.1516014 150.994796,33.1985881 153.538972,31.6506209 C154.471836,31.1732105 155.355217,30.9345089 156.189141,30.9345089 C156.372887,31.3829854 156.464759,31.9037889 156.464759,32.4969352 L155.934725,36.8587086 C158.08314,37.4807889 160.210321,37.7918243 162.316333,37.7918243 C167.701504,37.7918243 172.577767,36.3957814 176.945269,33.6036538 C177.694387,33.0105075 178.344555,32.3739699 178.895793,31.6940217 C177.454094,30.0303187 175.962947,28.8729775 174.422307,28.2219632 C172.231489,27.1369396 167.079611,25.4949617 158.966519,23.2959803 C152.139648,21.0101971 148.726264,18.2832118 148.726264,15.1149426 L148.726264,14.5507331 C148.726264,11.339063 151.362273,8.23594183 156.63437,5.24127645 C159.29162,3.7945782 162.054835,3.07123993 164.9241,3.07123993 L165.878161,3.07123993 Z" id="Path"></path>
                </g>
                <g id="logo" transform="translate(75.290441, 30.433962)" fill="#FFFFFF" fill-rule="nonzero">
                    <g id="logocolor">
                        <path d="M121.113601,10.2027814 L121.113601,10.2027814 C121.321407,11.5462536 123.378888,21.1883596 123.378888,21.1883596 L118.862718,21.1883596 L121.113601,10.2027814 Z M103.978902,32.6210844 L115.924635,32.6210844 L116.825812,28.6618048 L125.352012,28.6618048 L126.489798,32.6210844 L138.435531,32.6210844 L127.246951,1.10944613 L114.723066,1.10944613 L103.978902,32.6210844 Z" id="Shape"></path>
                        <path d="M74.6536297,1.10741365 L86.2249012,1.10741365 C96.7324551,1.10741365 104.75663,5.73538065 104.75663,17.3144443 C104.75663,26.6455803 98.2138412,32.6170195 89.0271899,32.6170195 L74.6536297,32.5987271 L74.6536297,1.10741365 Z M86.0191531,23.5704314 L86.7927658,23.5704314 C90.5847028,23.5704314 93.3911064,21.3895756 93.3911064,17.2778596 C93.3911064,12.8490761 90.9015548,10.377575 86.7372139,10.377575 L86.0191531,10.377575 L86.0191531,23.5704314 Z" id="Shape"></path>
                        <path d="M67.7754717,2.09520107 L68.384486,7.2678739 C68.5305672,8.49549448 69.2609728,11.4385319 68.3618537,11.0442299 C67.7939891,10.7982993 67.3289984,9.46702203 66.8681227,8.28005114 C66.6335699,7.68046824 65.5143004,4.83499006 65.2200807,4.62361168 C63.8107064,3.60533699 60.2800695,2.46104827 57.8933919,2.45088585 C50.6490024,2.42446355 45.8633023,7.55038923 45.8633023,16.641692 C45.8633023,23.161902 49.1182367,30.9930644 57.3995966,30.9930644 C60.3644263,30.9930644 66.043073,30.0906414 67.588241,26.0439649 C68.2857269,24.2126964 68.9256034,22.5806115 69.3905941,23.0785701 C69.7321359,23.4362874 69.28772,24.9057736 69.081972,25.6964101 C68.1067261,29.4504088 68.0511741,30.5865676 67.7446095,30.7349389 C64.0041096,32.5336876 59.2060646,33.1271731 55.0067465,33.1271731 C41.6639842,33.1271731 37.0531699,25.6537279 37.0531699,18.1823152 C37.0531699,5.21709713 45.3489321,-0.152726686 58.2164164,0.314744729 C61.4672359,0.432628825 64.7242279,0.993594522 67.7754717,2.09520107" id="Shape"></path>
                        <path d="M28.360314,2.67039416 L26.2225915,1.95495965 C25.5024733,1.33301942 26.3769026,1.16025824 26.3769026,1.16025824 C26.3769026,1.16025824 29.4631236,1.71106152 37.1581014,1.08708881 C37.1581014,1.08708881 37.8329551,1.21310284 37.370022,1.73545133 L34.8434357,2.77405087 C33.2015661,3.4610306 33.2015661,3.06469614 33.2015661,4.79434037 L33.1871637,20.8529997 C33.1871637,33.4117209 19.8752636,33.1292056 17.2828379,33.1292056 C16.0483495,33.1292056 3.9339031,33.1292056 3.9339031,23.0460504 L3.9339031,6.05041574 C3.9339031,3.0829885 4.26104253,3.16632036 3.23847462,2.81673304 L0.14608113,1.70293158 C0.14608113,1.70293158 -0.376518968,0.995627007 0.553462308,1.03830918 C3.07799113,1.16025824 6.73413433,1.68057425 15.2294721,1.08708881 C15.2294721,1.08708881 15.9742802,1.25984998 15.4866572,1.78219847 L13.0156229,2.47121069 C11.0610162,3.31265924 11.3182013,2.67039416 11.2688218,4.5951569 L11.3264313,21.3570558 C11.3264313,25.4667393 13.5279356,30.5540478 20.3690589,30.5540478 C29.8026079,30.5540478 29.8890221,22.7208529 29.8890221,20.9810462 L29.9075395,4.38174604 C30.008356,2.81673304 29.8005505,3.26184713 28.360314,2.67039416" id="Shape"></path>
                        <path d="M180.338183,30.2003955 L183.630152,21.8428196 L184.208305,22.3123235 C186.228751,23.8976614 188.975487,25.2451985 191.563798,25.3000756 C193.880521,25.3468227 195.010078,24.7553698 194.705571,22.8793867 C194.471018,21.4688425 192.820919,21.2269768 191.790121,21.0277934 L189.522777,20.5948742 C185.113596,19.8042377 181.412188,17.1965602 181.412188,12.2555906 C181.412188,4.78214547 188.12369,0.595227578 194.876342,0.595227578 C198.425496,0.595227578 201.676316,1.45700097 204.723445,3.35940638 L201.861489,10.7698445 C200.293689,9.68653035 197.917298,8.15810207 194.915434,8.05241288 C193.921671,8.01582816 191.662557,8.51785181 192.384733,10.7190324 C192.69747,11.6580402 194.098614,12.0543747 194.960699,12.2535582 L197.514032,12.8470436 C202.295617,13.9161304 205.74807,16.5258404 205.74807,21.8550145 C205.74807,29.3731744 198.997476,33.0926208 192.288031,33.0926208 C188.374703,33.0926208 183.840015,32.0215015 180.338183,30.2003955" id="Shape"></path>
                        <polygon id="Rectangle-path" points="166.61273 1.10944613 177.910356 1.10944613 177.910356 32.6210844 166.61273 32.6210844"></polygon>
                        <polygon id="Shape" points="153.658831 1.10741365 165.429678 1.10741365 153.405761 32.6170195 143.852878 32.6170195 131.863938 1.10741365 143.599808 1.10741365 148.626233 20.1213053"></polygon>
                    </g>
                </g>
            </g>
        </g>
    </g>
</svg>